<svg width="40" height="40" viewBox="0 0 40 40" fill="none" xmlns="http://www.w3.org/2000/svg">
<g filter="url(#filter0_d)">
<path d="M10 14.5H12C12 11.663 9.245 10.369 7 10.071V8H5V10.071C2.755 10.369 0 11.663 0 14.5C0 17.206 2.666 18.613 5 18.93V23.9C3.552 23.649 2 22.876 2 21.5H0C0 24.089 2.425 25.619 5 25.936V28H7V25.93C9.245 25.632 12 24.337 12 21.5C12 18.663 9.245 17.369 7 17.071V12.1C8.33 12.339 10 13.041 10 14.5ZM2 14.5C2 13.041 3.67 12.339 5 12.1V16.899C3.629 16.646 2 15.897 2 14.5ZM10 21.5C10 22.959 8.33 23.661 7 23.9V19.1C8.33 19.339 10 20.041 10 21.5Z" fill="#1F2933"/>
<path d="M10 14.5H12C12 11.663 9.245 10.369 7 10.071V8H5V10.071C2.755 10.369 0 11.663 0 14.5C0 17.206 2.666 18.613 5 18.93V23.9C3.552 23.649 2 22.876 2 21.5H0C0 24.089 2.425 25.619 5 25.936V28H7V25.93C9.245 25.632 12 24.337 12 21.5C12 18.663 9.245 17.369 7 17.071V12.1C8.33 12.339 10 13.041 10 14.5ZM2 14.5C2 13.041 3.67 12.339 5 12.1V16.899C3.629 16.646 2 15.897 2 14.5ZM10 21.5C10 22.959 8.33 23.661 7 23.9V19.1C8.33 19.339 10 20.041 10 21.5Z" fill="#7CFA4C"/>
<path fill-rule="evenodd" clip-rule="evenodd" d="M34.5 5.5H6V2.5H37.5V35.5H6V32.5H34.5V5.5Z" fill="#1F2933"/>
<path fill-rule="evenodd" clip-rule="evenodd" d="M34.5 5.5H6V2.5H37.5V35.5H6V32.5H34.5V5.5Z" fill="#7CFA4C"/>
<path d="M14.6262 13.3091H16.7338L18.368 19.7084H18.3985V13.3091H19.8953V24H18.1695L16.1535 16.1956H16.1229V24H14.6262V13.3091ZM20.5439 13.3091H24.9883V14.8364H22.2239V17.8145H24.3927V19.3418H22.2239V24H20.5439V13.3091ZM26.6565 14.8364H24.9002V13.3091H30.0929V14.8364H28.3365V24H26.6565V14.8364Z" fill="#1F2933"/>
<path d="M14.6262 13.3091H16.7338L18.368 19.7084H18.3985V13.3091H19.8953V24H18.1695L16.1535 16.1956H16.1229V24H14.6262V13.3091ZM20.5439 13.3091H24.9883V14.8364H22.2239V17.8145H24.3927V19.3418H22.2239V24H20.5439V13.3091ZM26.6565 14.8364H24.9002V13.3091H30.0929V14.8364H28.3365V24H26.6565V14.8364Z" fill="#7CFA4C"/>
</g>
<defs>
<filter id="filter0_d" x="0" y="0" width="40" height="40" filterUnits="userSpaceOnUse" color-interpolation-filters="sRGB">
<feFlood flood-opacity="0" result="BackgroundImageFix"/>
<feColorMatrix in="SourceAlpha" type="matrix" values="0 0 0 0 0 0 0 0 0 0 0 0 0 0 0 0 0 0 127 0" result="hardAlpha"/>
<feMorphology radius="51" operator="erode" in="SourceAlpha" result="effect1_dropShadow"/>
<feOffset dy="3"/>
<feGaussianBlur stdDeviation="4.5"/>
<feColorMatrix type="matrix" values="0 0 0 0 0.251751 0 0 0 0 0.729167 0 0 0 0 0.0698785 0 0 0 1 0"/>
<feBlend mode="normal" in2="BackgroundImageFix" result="effect1_dropShadow"/>
<feBlend mode="normal" in="SourceGraphic" in2="effect1_dropShadow" result="shape"/>
</filter>
</defs>
</svg>
