<svg width="20" height="20" viewBox="0 0 20 20" fill="none" xmlns="http://www.w3.org/2000/svg">
<g opacity="0.35">
<path d="M16.783 10.0001C16.783 8.9511 17.429 8.1251 18.4 7.5571C18.2265 6.97778 17.9947 6.41757 17.708 5.8851C16.619 6.1701 15.738 5.7441 14.997 5.0021C14.256 4.2621 14.029 3.3811 14.314 2.2911C13.7821 2.00349 13.2218 1.77192 12.642 1.6001C12.074 2.5701 11.047 3.2151 10 3.2151C8.95201 3.2151 7.92601 2.5701 7.35701 1.6001C6.77751 1.77174 6.21748 2.00333 5.68601 2.2911C5.97101 3.3811 5.74501 4.2621 5.00201 5.0021C4.26201 5.7441 3.38101 6.1701 2.29101 5.8851C2.00382 6.4172 1.77227 6.9775 1.60001 7.5571C2.57001 8.1251 3.21501 8.9511 3.21501 10.0001C3.21501 11.0471 2.57001 12.0741 1.60001 12.6431C1.77288 13.2225 2.00441 13.7827 2.29101 14.3151C3.38101 14.0301 4.26201 14.2561 5.00201 14.9971C5.74301 15.7391 5.97101 16.6201 5.68601 17.7081C6.21816 17.9957 6.77843 18.2279 7.35801 18.4011C7.92601 17.4281 8.95301 16.7841 10.001 16.7841C11.048 16.7841 12.075 17.4291 12.644 18.4011C13.2233 18.2271 13.7835 17.9949 14.316 17.7081C14.031 16.6201 14.257 15.7391 14.999 14.9971C15.74 14.2571 16.621 13.8311 17.71 14.1141C17.9974 13.582 18.2293 13.0217 18.402 12.4421C17.429 11.8731 16.783 11.0471 16.783 10.0001ZM10 13.6521C9.03117 13.6521 8.10202 13.2672 7.41694 12.5822C6.73187 11.8971 6.34701 10.9679 6.34701 9.9991C6.34701 9.03026 6.73187 8.10111 7.41694 7.41604C8.10202 6.73097 9.03117 6.3461 10 6.3461C10.9688 6.3461 11.898 6.73097 12.5831 7.41604C13.2681 8.10111 13.653 9.03026 13.653 9.9991C13.653 10.9679 13.2681 11.8971 12.5831 12.5822C11.898 13.2672 10.9688 13.6521 10 13.6521Z" fill="white"/>
</g>
</svg>
