<svg width="40" height="40" viewBox="0 0 40 40" fill="none" xmlns="http://www.w3.org/2000/svg">
<g filter="url(#filter0_d)">
<path d="M18.9728 10.593C19.6084 10.2261 20.3916 10.2261 21.0272 10.593L27.6331 14.407C28.2687 14.7739 28.6603 15.4521 28.6603 16.1861V23.8139C28.6603 24.5479 28.2687 25.2261 27.6331 25.593L21.0272 29.407C20.3916 29.7739 19.6084 29.7739 18.9728 29.407L12.3669 25.593C11.7313 25.2261 11.3397 24.5479 11.3397 23.8139V16.1861C11.3397 15.4521 11.7313 14.7739 12.3669 14.407L18.9728 10.593Z" fill="#1F2933"/>
<path d="M18.9728 10.593C19.6084 10.2261 20.3916 10.2261 21.0272 10.593L27.6331 14.407C28.2687 14.7739 28.6603 15.4521 28.6603 16.1861V23.8139C28.6603 24.5479 28.2687 25.2261 27.6331 25.593L21.0272 29.407C20.3916 29.7739 19.6084 29.7739 18.9728 29.407L12.3669 25.593C11.7313 25.2261 11.3397 24.5479 11.3397 23.8139V16.1861C11.3397 15.4521 11.7313 14.7739 12.3669 14.407L18.9728 10.593Z" fill="#7CFA4C"/>
<path fill-rule="evenodd" clip-rule="evenodd" d="M0 18.5H12V21.5H0V18.5Z" fill="#1F2933"/>
<path fill-rule="evenodd" clip-rule="evenodd" d="M0 18.5H12V21.5H0V18.5Z" fill="#7CFA4C"/>
<path fill-rule="evenodd" clip-rule="evenodd" d="M0 13H7.41406V16H0V13Z" fill="#1F2933"/>
<path fill-rule="evenodd" clip-rule="evenodd" d="M0 13H7.41406V16H0V13Z" fill="#7CFA4C"/>
<path fill-rule="evenodd" clip-rule="evenodd" d="M-1.90735e-06 24H7.41614V27H-1.90735e-06V24Z" fill="#1F2933"/>
<path fill-rule="evenodd" clip-rule="evenodd" d="M-1.90735e-06 24H7.41614V27H-1.90735e-06V24Z" fill="#7CFA4C"/>
<path fill-rule="evenodd" clip-rule="evenodd" d="M7.41162 12.7316L20.0001 5.46368L32.5885 12.7316V27.2675L20.0001 34.5355L7.41162 27.2675V24H4.41162V27.8135C4.41162 28.5474 4.80318 29.2256 5.4388 29.5926L18.9729 37.4065C19.6085 37.7735 20.3916 37.7735 21.0273 37.4065L34.5614 29.5926C35.197 29.2256 35.5885 28.5474 35.5885 27.8135V12.1857C35.5885 11.4517 35.197 10.7735 34.5614 10.4065L21.0273 2.59261C20.3916 2.22564 19.6085 2.22564 18.9729 2.59261L5.43879 10.4065C4.80318 10.7735 4.41162 11.4517 4.41162 12.1857V16H7.41162V12.7316Z" fill="#1F2933"/>
<path fill-rule="evenodd" clip-rule="evenodd" d="M7.41162 12.7316L20.0001 5.46368L32.5885 12.7316V27.2675L20.0001 34.5355L7.41162 27.2675V24H4.41162V27.8135C4.41162 28.5474 4.80318 29.2256 5.4388 29.5926L18.9729 37.4065C19.6085 37.7735 20.3916 37.7735 21.0273 37.4065L34.5614 29.5926C35.197 29.2256 35.5885 28.5474 35.5885 27.8135V12.1857C35.5885 11.4517 35.197 10.7735 34.5614 10.4065L21.0273 2.59261C20.3916 2.22564 19.6085 2.22564 18.9729 2.59261L5.43879 10.4065C4.80318 10.7735 4.41162 11.4517 4.41162 12.1857V16H7.41162V12.7316Z" fill="#7CFA4C"/>
</g>
<defs>
<filter id="filter0_d" x="0" y="0" width="40" height="40" filterUnits="userSpaceOnUse" color-interpolation-filters="sRGB">
<feFlood flood-opacity="0" result="BackgroundImageFix"/>
<feColorMatrix in="SourceAlpha" type="matrix" values="0 0 0 0 0 0 0 0 0 0 0 0 0 0 0 0 0 0 127 0" result="hardAlpha"/>
<feMorphology radius="51" operator="erode" in="SourceAlpha" result="effect1_dropShadow"/>
<feOffset dy="3"/>
<feGaussianBlur stdDeviation="4.5"/>
<feColorMatrix type="matrix" values="0 0 0 0 0.251751 0 0 0 0 0.729167 0 0 0 0 0.0698785 0 0 0 1 0"/>
<feBlend mode="normal" in2="BackgroundImageFix" result="effect1_dropShadow"/>
<feBlend mode="normal" in="SourceGraphic" in2="effect1_dropShadow" result="shape"/>
</filter>
</defs>
</svg>
