<svg width="40" height="40" viewBox="0 0 40 40" fill="none" xmlns="http://www.w3.org/2000/svg">
<path d="M35.8858 10.926C35.8112 10.7452 35.7018 10.5807 35.5638 10.442L35.5598 10.44L35.5578 10.436C35.2769 10.1562 34.8963 9.99938 34.4998 10H23.4998C23.102 10 22.7205 10.158 22.4392 10.4393C22.1579 10.7206 21.9998 11.1022 21.9998 11.5C21.9998 11.8978 22.1579 12.2794 22.4392 12.5607C22.7205 12.842 23.102 13 23.4998 13H30.8798L20.9998 22.88L17.0598 18.94C16.7786 18.6591 16.3973 18.5013 15.9998 18.5013C15.6023 18.5013 15.2211 18.6591 14.9398 18.94L4.43982 29.44C4.29245 29.5773 4.17424 29.7429 4.09226 29.9269C4.01027 30.1109 3.96619 30.3096 3.96264 30.511C3.95908 30.7124 3.99613 30.9124 4.07157 31.0992C4.14702 31.286 4.2593 31.4556 4.40174 31.5981C4.54418 31.7405 4.71385 31.8528 4.90062 31.9282C5.0874 32.0037 5.28746 32.0407 5.48886 32.0372C5.69027 32.0336 5.8889 31.9895 6.0729 31.9076C6.25689 31.8256 6.42249 31.7074 6.55982 31.56L15.9998 22.12L19.9398 26.06C20.2211 26.3409 20.6023 26.4987 20.9998 26.4987C21.3973 26.4987 21.7786 26.3409 22.0598 26.06L32.9998 15.12V22.5C32.9998 22.8978 33.1579 23.2794 33.4392 23.5607C33.7205 23.842 34.102 24 34.4998 24C34.8976 24 35.2792 23.842 35.5605 23.5607C35.8418 23.2794 35.9998 22.8978 35.9998 22.5V11.5C36 11.303 35.9613 11.1079 35.8858 10.926Z" fill="#1F2933"/>
<path d="M35.8858 10.926C35.8112 10.7452 35.7018 10.5807 35.5638 10.442L35.5598 10.44L35.5578 10.436C35.2769 10.1562 34.8963 9.99938 34.4998 10H23.4998C23.102 10 22.7205 10.158 22.4392 10.4393C22.1579 10.7206 21.9998 11.1022 21.9998 11.5C21.9998 11.8978 22.1579 12.2794 22.4392 12.5607C22.7205 12.842 23.102 13 23.4998 13H30.8798L20.9998 22.88L17.0598 18.94C16.7786 18.6591 16.3973 18.5013 15.9998 18.5013C15.6023 18.5013 15.2211 18.6591 14.9398 18.94L4.43982 29.44C4.29245 29.5773 4.17424 29.7429 4.09226 29.9269C4.01027 30.1109 3.96619 30.3096 3.96264 30.511C3.95908 30.7124 3.99613 30.9124 4.07157 31.0992C4.14702 31.286 4.2593 31.4556 4.40174 31.5981C4.54418 31.7405 4.71385 31.8528 4.90062 31.9282C5.0874 32.0037 5.28746 32.0407 5.48886 32.0372C5.69027 32.0336 5.8889 31.9895 6.0729 31.9076C6.25689 31.8256 6.42249 31.7074 6.55982 31.56L15.9998 22.12L19.9398 26.06C20.2211 26.3409 20.6023 26.4987 20.9998 26.4987C21.3973 26.4987 21.7786 26.3409 22.0598 26.06L32.9998 15.12V22.5C32.9998 22.8978 33.1579 23.2794 33.4392 23.5607C33.7205 23.842 34.102 24 34.4998 24C34.8976 24 35.2792 23.842 35.5605 23.5607C35.8418 23.2794 35.9998 22.8978 35.9998 22.5V11.5C36 11.303 35.9613 11.1079 35.8858 10.926Z" fill="#7CFA4C"/>
</svg>
