<svg width="40" height="40" viewBox="0 0 40 40" fill="none" xmlns="http://www.w3.org/2000/svg">
<g filter="url(#filter0_d)">
<path d="M26.25 3.75V6.9825L21.25 11.9825V1.25H18.75V11.9825L13.75 6.9825V3.75H11.25V23.75C11.2535 25.852 12.0132 27.8826 13.3902 29.4708C14.7672 31.059 16.6697 32.0987 18.75 32.4V37.5H21.25V32.4C23.3303 32.0987 25.2328 31.059 26.6098 29.4708C27.9868 27.8826 28.7465 25.852 28.75 23.75V3.75H26.25ZM18.75 29.8738C17.3394 29.5839 16.0718 28.8165 15.161 27.701C14.2502 26.5855 13.7519 25.1901 13.75 23.75V20.5175L18.75 25.5175V29.8738ZM18.75 21.9825L13.75 16.9825V10.5175L18.75 15.5175V21.9825ZM21.25 15.5175L26.25 10.5175V16.9825L21.25 21.9825V15.5175ZM21.25 29.8738V25.5175L26.25 20.5175V23.75C26.2481 25.1901 25.7498 26.5855 24.839 27.701C23.9282 28.8165 22.6606 29.5839 21.25 29.8738Z" fill="#1F2933"/>
<path d="M26.25 3.75V6.9825L21.25 11.9825V1.25H18.75V11.9825L13.75 6.9825V3.75H11.25V23.75C11.2535 25.852 12.0132 27.8826 13.3902 29.4708C14.7672 31.059 16.6697 32.0987 18.75 32.4V37.5H21.25V32.4C23.3303 32.0987 25.2328 31.059 26.6098 29.4708C27.9868 27.8826 28.7465 25.852 28.75 23.75V3.75H26.25ZM18.75 29.8738C17.3394 29.5839 16.0718 28.8165 15.161 27.701C14.2502 26.5855 13.7519 25.1901 13.75 23.75V20.5175L18.75 25.5175V29.8738ZM18.75 21.9825L13.75 16.9825V10.5175L18.75 15.5175V21.9825ZM21.25 15.5175L26.25 10.5175V16.9825L21.25 21.9825V15.5175ZM21.25 29.8738V25.5175L26.25 20.5175V23.75C26.2481 25.1901 25.7498 26.5855 24.839 27.701C23.9282 28.8165 22.6606 29.5839 21.25 29.8738Z" fill="#7CFA4C"/>
</g>
<defs>
<filter id="filter0_d" x="0" y="0" width="40" height="40" filterUnits="userSpaceOnUse" color-interpolation-filters="sRGB">
<feFlood flood-opacity="0" result="BackgroundImageFix"/>
<feColorMatrix in="SourceAlpha" type="matrix" values="0 0 0 0 0 0 0 0 0 0 0 0 0 0 0 0 0 0 127 0" result="hardAlpha"/>
<feMorphology radius="51" operator="erode" in="SourceAlpha" result="effect1_dropShadow"/>
<feOffset dy="3"/>
<feGaussianBlur stdDeviation="4.5"/>
<feColorMatrix type="matrix" values="0 0 0 0 0.251751 0 0 0 0 0.729167 0 0 0 0 0.0698785 0 0 0 1 0"/>
<feBlend mode="normal" in2="BackgroundImageFix" result="effect1_dropShadow"/>
<feBlend mode="normal" in="SourceGraphic" in2="effect1_dropShadow" result="shape"/>
</filter>
</defs>
</svg>
